<?xml version="1.0" encoding="utf-8"?>
<!-- Generator: Adobe Illustrator 16.0.0, SVG Export Plug-In . SVG Version: 6.00 Build 0)  -->
<!DOCTYPE svg PUBLIC "-//W3C//DTD SVG 1.1//EN" "http://www.w3.org/Graphics/SVG/1.1/DTD/svg11.dtd">
<svg version="1.1" id="Layer_1" xmlns="http://www.w3.org/2000/svg" xmlns:xlink="http://www.w3.org/1999/xlink" x="0px" y="0px"
	 width="47px" height="25px" viewBox="0 0 47 25" enable-background="new 0 0 47 25" xml:space="preserve">
<path fill="#FFFFFF" d="M46,12.265h-6.596c-0.428,0-0.808,0.272-0.946,0.676l-0.695,2.034l-4.15-10.422
	c-0.151-0.38-0.519-0.63-0.929-0.63c-0.409,0-0.777,0.249-0.929,0.629l-3.079,7.712h-4.867c0.823-1.807,1.326-3.595,1.352-5.258
	c0.035-2.2-0.777-4.02-2.349-5.261C21.346,0.587,19.81,0,18.247,0c-2.61,0-4.613,1.632-5.666,2.731C11.529,1.632,9.525,0,6.915,0
	C5.352,0,3.816,0.587,2.35,1.746C0.778,2.987-0.034,4.807,0.001,7.006c0.094,5.933,6.101,13.445,11.985,17.797
	C12.163,24.935,12.372,25,12.581,25s0.418-0.065,0.595-0.196c3.627-2.683,7.296-6.565,9.603-10.539h6.575
	c0.409,0,0.777-0.249,0.929-0.629l2.4-6.013l4.223,10.604c0.151,0.381,0.52,0.63,0.929,0.63c0.008,0,0.017,0,0.024,0
	c0.419-0.011,0.786-0.28,0.922-0.677l1.339-3.915H46c0.553,0,1-0.447,1-1C47,12.712,46.553,12.265,46,12.265z M12.581,22.746
	C6.578,18.097,2.071,11.418,2.001,6.975C1.976,5.377,2.495,4.18,3.59,3.315C4.695,2.442,5.813,2,6.915,2
	c2.798,0,4.828,2.823,4.847,2.849c0.187,0.267,0.492,0.425,0.817,0.426c0.001,0,0.002,0,0.003,0c0.324,0,0.629-0.159,0.817-0.423
	C13.419,4.823,15.45,2,18.247,2c1.102,0,2.22,0.442,3.325,1.315c1.095,0.865,1.615,2.062,1.59,3.66
	C23.091,11.418,18.584,18.098,12.581,22.746z"/>
</svg>
